<svg preserveAspectRatio="none" width="100%" height="100%" overflow="visible" style="display: block;" viewBox="0 0 31 31.4867" fill="none" xmlns="http://www.w3.org/2000/svg">
<path id="Vector" d="M16.571 31.4867H0.822755C0.464924 31.3331 0.249618 31.1148 0.0986012 30.7478C0.331495 25.4761 -0.211924 19.9226 0.0986012 14.6829C0.916762 0.880763 17.8828 -5.13286 27.0712 5.23356C35.6707 14.9352 29.2479 30.7047 16.5704 31.4867H16.571ZM8.65077 11.8047C7.51238 12.052 7.57425 13.624 8.75691 13.7597H22.3333C23.5651 13.6185 23.5651 11.9311 22.3333 11.7899L8.65077 11.8047ZM8.65077 17.7135C7.5324 17.9577 7.57364 19.4742 8.70232 19.6629H16.5964C17.7573 19.4613 17.7518 17.9022 16.5964 17.7042L8.65138 17.7135H8.65077Z" fill="var(--fill-0, white)"/>
</svg>
