<svg preserveAspectRatio="none" width="100%" height="100%" overflow="visible" style="display: block;" viewBox="0 0 26.5784 26.4092" fill="none" xmlns="http://www.w3.org/2000/svg">
<g id="TdJzPZ.tif">
<path id="Vector" d="M13.4571 0C14.0878 0.0980062 14.6929 0.180406 15.2824 0.445086C18.3 2.53942 21.5851 4.50017 24.5178 6.70188C25.6557 7.55647 26.4037 8.59958 26.5784 10.0559V22.3292C26.3232 24.4098 24.6819 26.0828 22.6207 26.3986L4.22168 26.4092C2.13242 26.227 0.23469 24.3817 0.0868391 22.268C-0.189524 18.3153 0.301441 14.043 0.0868391 10.0566C0.262763 8.5846 1.02947 7.53212 2.18358 6.67628C5.06823 4.53575 8.24609 2.64117 11.1757 0.54871C11.7115 0.278413 12.613 0.0156061 13.2081 0H13.4571ZM10.0222 20.4433C9.09951 20.5769 9.102 21.6937 10.1307 21.7967C12.1476 21.9977 14.4827 21.6488 16.5332 21.7967C17.5501 21.7293 17.6144 20.5357 16.5332 20.4277C14.4883 20.2236 12.1021 20.5651 10.0215 20.4433H10.0222Z" fill="var(--fill-0, white)"/>
</g>
</svg>
