<svg preserveAspectRatio="none" width="100%" height="100%" overflow="visible" style="display: block;" viewBox="0 0 18 13" fill="none" xmlns="http://www.w3.org/2000/svg">
<path id="Icon" d="M10.6364 7.3125C9.95455 7.3125 9.375 7.07552 8.89773 6.60156C8.42045 6.1276 8.18182 5.55208 8.18182 4.875C8.18182 4.19792 8.42045 3.6224 8.89773 3.14844C9.375 2.67448 9.95455 2.4375 10.6364 2.4375C11.3182 2.4375 11.8977 2.67448 12.375 3.14844C12.8523 3.6224 13.0909 4.19792 13.0909 4.875C13.0909 5.55208 12.8523 6.1276 12.375 6.60156C11.8977 7.07552 11.3182 7.3125 10.6364 7.3125ZM4.90909 9.75C4.45909 9.75 4.07386 9.59089 3.75341 9.27266C3.43295 8.95443 3.27273 8.57188 3.27273 8.125V1.625C3.27273 1.17812 3.43295 0.795573 3.75341 0.477344C4.07386 0.159115 4.45909 0 4.90909 0H16.3636C16.8136 0 17.1989 0.159115 17.5193 0.477344C17.8398 0.795573 18 1.17812 18 1.625V8.125C18 8.57188 17.8398 8.95443 17.5193 9.27266C17.1989 9.59089 16.8136 9.75 16.3636 9.75H4.90909ZM6.54545 8.125H14.7273C14.7273 7.67812 14.8875 7.29557 15.208 6.97734C15.5284 6.65911 15.9136 6.5 16.3636 6.5V3.25C15.9136 3.25 15.5284 3.09089 15.208 2.77266C14.8875 2.45443 14.7273 2.07188 14.7273 1.625H6.54545C6.54545 2.07188 6.38523 2.45443 6.06477 2.77266C5.74432 3.09089 5.35909 3.25 4.90909 3.25V6.5C5.35909 6.5 5.74432 6.65911 6.06477 6.97734C6.38523 7.29557 6.54545 7.67812 6.54545 8.125ZM15.5455 13H1.63636C1.18636 13 0.801136 12.8409 0.480682 12.5227C0.160227 12.2044 0 11.8219 0 11.375V2.4375H1.63636V11.375H15.5455V13Z" fill="var(--fill-0, #FFB534)"/>
</svg>
