<svg preserveAspectRatio="none" width="100%" height="100%" overflow="visible" style="display: block;" viewBox="0 0 17.862 14" fill="none" xmlns="http://www.w3.org/2000/svg">
<g id="Group">
<path id="Vector" d="M17.1985 14H0.662718C0.325766 13.8969 0.102763 13.6731 0 13.3354V12.9853C0.121638 12.6072 0.3754 12.3543 0.783657 12.3193L17.1108 12.321C18.0699 12.4589 18.1227 13.7419 17.1985 14Z" fill="var(--fill-0, #FFB534)"/>
<path id="Vector_2" d="M1.18594 11.2011C0.591736 7.27347 3.21045 3.39251 7.04695 2.48899C6.58241 0.72616 8.49577 -0.677862 10.0372 0.347008C10.7171 0.799115 11.0449 1.70087 10.8139 2.48899C14.6483 3.38584 17.2698 7.27908 16.6749 11.2011H1.18594ZM8.81769 1.13407C8.30912 1.20247 7.96063 1.7584 8.14518 2.24488L9.70061 2.26382C9.95123 1.68299 9.43182 1.05165 8.81804 1.13372L8.81769 1.13407ZM6.47965 4.45666C6.11613 4.51488 5.18078 5.18375 4.88332 5.44505C4.40621 5.86419 3.48973 6.95956 3.33803 7.56845C3.2094 8.08474 3.77949 8.47266 4.20348 8.15664C4.39502 8.01389 4.57329 7.54389 4.72254 7.31276C5.15561 6.64073 5.75646 6.11918 6.43037 5.70179C6.62506 5.58114 6.86728 5.53484 7.01164 5.34018C7.31224 4.93507 6.96515 4.37844 6.47965 4.45631V4.45666Z" fill="var(--fill-0, #FFB534)"/>
</g>
</svg>
