<svg preserveAspectRatio="none" width="100%" height="100%" overflow="visible" style="display: block;" viewBox="0 0 14.4 16" fill="none" xmlns="http://www.w3.org/2000/svg">
<path id="Icon" d="M1.6 16C1.16 16 0.783333 15.8433 0.47 15.53C0.156667 15.2167 0 14.84 0 14.4V3.2C0 2.76 0.156667 2.38333 0.47 2.07C0.783333 1.75667 1.16 1.6 1.6 1.6H2.4V0H4V1.6H10.4V0H12V1.6H12.8C13.24 1.6 13.6167 1.75667 13.93 2.07C14.2433 2.38333 14.4 2.76 14.4 3.2V14.4C14.4 14.84 14.2433 15.2167 13.93 15.53C13.6167 15.8433 13.24 16 12.8 16H1.6ZM1.6 14.4H12.8V6.4H1.6V14.4ZM1.6 4.8H12.8V3.2H1.6V4.8Z" fill="var(--fill-0, #FFB534)"/>
</svg>
