<svg preserveAspectRatio="none" width="100%" height="100%" overflow="visible" style="display: block;" viewBox="0 0 17 13" fill="none" xmlns="http://www.w3.org/2000/svg">
<path id="Icon" d="M0 13V10.725C0 10.2646 0.112689 9.84141 0.338068 9.45547C0.563447 9.06953 0.862879 8.775 1.23636 8.57188C2.03485 8.15208 2.84621 7.83724 3.67045 7.62734C4.4947 7.41745 5.33182 7.3125 6.18182 7.3125C7.03182 7.3125 7.86894 7.41745 8.69318 7.62734C9.51742 7.83724 10.3288 8.15208 11.1273 8.57188C11.5008 8.775 11.8002 9.06953 12.0256 9.45547C12.2509 9.84141 12.3636 10.2646 12.3636 10.725V13H0ZM13.9091 13V10.5625C13.9091 9.96667 13.7513 9.39453 13.4358 8.84609C13.1203 8.29766 12.6727 7.82708 12.0932 7.43437C12.75 7.51562 13.3682 7.65443 13.9477 7.85078C14.5273 8.04714 15.0682 8.2875 15.5705 8.57188C16.0341 8.84271 16.3883 9.14401 16.633 9.47578C16.8777 9.80755 17 10.1698 17 10.5625V13H13.9091ZM6.18182 6.5C5.33182 6.5 4.60417 6.18177 3.99886 5.54531C3.39356 4.90885 3.09091 4.14375 3.09091 3.25C3.09091 2.35625 3.39356 1.59115 3.99886 0.954687C4.60417 0.318229 5.33182 0 6.18182 0C7.03182 0 7.75947 0.318229 8.36477 0.954687C8.97008 1.59115 9.27273 2.35625 9.27273 3.25C9.27273 4.14375 8.97008 4.90885 8.36477 5.54531C7.75947 6.18177 7.03182 6.5 6.18182 6.5ZM13.9091 3.25C13.9091 4.14375 13.6064 4.90885 13.0011 5.54531C12.3958 6.18177 11.6682 6.5 10.8182 6.5C10.6765 6.5 10.4962 6.48307 10.2773 6.44922C10.0583 6.41536 9.87803 6.37813 9.73636 6.3375C10.0841 5.90417 10.3513 5.42344 10.5381 4.89531C10.7248 4.36719 10.8182 3.81875 10.8182 3.25C10.8182 2.68125 10.7248 2.13281 10.5381 1.60469C10.3513 1.07656 10.0841 0.595833 9.73636 0.1625C9.91667 0.0947917 10.097 0.0507813 10.2773 0.0304688C10.4576 0.0101563 10.6379 0 10.8182 0C11.6682 0 12.3958 0.318229 13.0011 0.954687C13.6064 1.59115 13.9091 2.35625 13.9091 3.25ZM1.54545 11.375H10.8182V10.725C10.8182 10.576 10.7828 10.4406 10.7119 10.3187C10.6411 10.1969 10.5477 10.1021 10.4318 10.0344C9.73636 9.66875 9.03447 9.39453 8.32614 9.21172C7.6178 9.02891 6.90303 8.9375 6.18182 8.9375C5.46061 8.9375 4.74583 9.02891 4.0375 9.21172C3.32917 9.39453 2.62727 9.66875 1.93182 10.0344C1.81591 10.1021 1.72254 10.1969 1.6517 10.3187C1.58087 10.4406 1.54545 10.576 1.54545 10.725V11.375ZM6.18182 4.875C6.60682 4.875 6.97064 4.71589 7.2733 4.39766C7.57595 4.07943 7.72727 3.69688 7.72727 3.25C7.72727 2.80312 7.57595 2.42057 7.2733 2.10234C6.97064 1.78411 6.60682 1.625 6.18182 1.625C5.75682 1.625 5.39299 1.78411 5.09034 2.10234C4.78769 2.42057 4.63636 2.80312 4.63636 3.25C4.63636 3.69688 4.78769 4.07943 5.09034 4.39766C5.39299 4.71589 5.75682 4.875 6.18182 4.875Z" fill="var(--fill-0, #FFB534)"/>
</svg>
