<svg preserveAspectRatio="none" width="100%" height="100%" overflow="visible" style="display: block;" viewBox="0 0 74 26" fill="none" xmlns="http://www.w3.org/2000/svg">
<g id="Layer_1" clip-path="url(#clip0_6_18)">
<path id="Vector" d="M15.188 17.1933C15.188 17.1933 16.7059 16.0966 21.0934 16.8806C25.4809 17.6647 27.7862 17.856 28.5546 16.5306C28.5546 16.5306 28.2652 22.3037 24.0342 22.3037C19.8032 22.3037 17.4932 21.0716 17.4932 21.0716L15.1833 17.1933H15.188Z" fill="var(--fill-0, #F89E27)"/>
<g id="Group">
<path id="Vector_2" d="M42.6042 0.191348V8.05529C41.1575 7.20122 39.5258 6.76719 37.6996 6.76719C35.1572 6.76719 32.999 7.59792 31.2156 9.23604H31.116C30.3997 9.88009 29.1001 11.3315 28.455 13.8704H28.4834C28.4834 13.8704 27.8241 17.9727 25.7655 19.9655C25.6375 20.0915 25.5046 20.2082 25.3671 20.3109C25.2959 20.3716 25.22 20.4276 25.1442 20.4742C24.3663 21.0249 23.4129 21.347 22.3788 21.347C19.7368 21.347 17.5881 19.2328 17.5881 16.6333V14.7525L17.5502 14.7291V9.20337L12.8875 9.18937V9.54407H12.859V16.4046C12.859 21.389 16.7201 25.6733 21.7764 25.9813C25.4003 26.2053 28.621 24.4085 30.4092 21.6363C31.3294 20.3156 32.2022 18.5094 32.7524 15.7559C32.9469 14.8038 33.2979 13.8797 33.8528 13.077C33.9762 12.8997 34.0995 12.7363 34.2181 12.6196C35.143 11.7002 36.3051 11.2382 37.6996 11.2382C39.0942 11.2382 40.2563 11.7002 41.1954 12.6196C42.1346 13.5437 42.5994 14.7151 42.5994 16.1339C42.5994 17.5527 42.1346 18.7194 41.1954 19.6435C40.2563 20.5676 39.0942 21.0249 37.6996 21.0249C36.3051 21.0249 35.143 20.5676 34.2181 19.6435C34.0473 19.4708 33.8908 19.2935 33.7532 19.1021C33.2789 20.1942 32.5342 21.655 31.4385 23.2371C33.1793 24.7446 35.2663 25.496 37.6996 25.496C40.3654 25.496 42.6232 24.5906 44.4778 22.7844C46.2375 21.0623 47.1483 18.9715 47.2336 16.5166H47.2526V0.191348H42.6042Z" fill="var(--fill-0, white)"/>
<path id="Vector_3" d="M71.2252 9.4834C69.3753 7.67259 67.1175 6.76719 64.447 6.76719C61.7766 6.76719 59.5282 7.67259 57.6878 9.4834C55.8475 11.2942 54.932 13.5064 54.932 16.1339C54.932 18.7614 55.8522 20.9736 57.6878 22.7844C59.5282 24.5906 61.7813 25.496 64.447 25.496C67.1128 25.496 69.3753 24.5906 71.2252 22.7844C73.0751 20.9736 74 18.7568 74 16.1339C74 13.511 73.0751 11.2895 71.2252 9.4834ZM67.9428 19.6435C67.0084 20.5676 65.8416 21.0249 64.447 21.0249C63.0525 21.0249 61.8951 20.5676 60.9702 19.6435C60.0453 18.7194 59.5804 17.5527 59.5804 16.1339C59.5804 14.7151 60.0453 13.5437 60.9702 12.6196C61.8951 11.7002 63.0525 11.2382 64.447 11.2382C65.8416 11.2382 67.0084 11.7002 67.9428 12.6196C68.8773 13.539 69.3516 14.7151 69.3516 16.1339C69.3516 17.5527 68.882 18.7194 67.9428 19.6435Z" fill="var(--fill-0, white)"/>
<path id="Vector_4" d="M10.6344 5.08239H15.0694V0.401364H10.4637C4.68637 0.401364 0 5.01239 0 10.6968V25.2299H4.97571V15.6532H10.07V10.9722H4.97571V10.6548C4.97571 7.57925 7.50862 5.08706 10.6344 5.08706V5.08239Z" fill="var(--fill-0, white)"/>
<path id="Vector_5" d="M51.6022 0C50.8101 0 50.1318 0.275354 49.5673 0.835398C49.0029 1.39077 48.7183 2.04882 48.7183 2.80488C48.7183 3.56094 49.0029 4.22366 49.5673 4.79304C50.1318 5.36241 50.8101 5.64243 51.6022 5.64243C52.3943 5.64243 53.0394 5.35775 53.6039 4.79304C54.1683 4.22366 54.4529 3.56561 54.4529 2.80488C54.4529 2.04416 54.1731 1.39077 53.6039 0.835398C53.0394 0.280022 52.3706 0 51.6022 0Z" fill="var(--fill-0, white)"/>
<path id="Vector_6" d="M53.5991 7.72393H48.9507V25.4586H53.5991V7.72393Z" fill="var(--fill-0, white)"/>
</g>
</g>
<defs>
<clipPath id="clip0_6_18">
<rect width="74" height="26" fill="white"/>
</clipPath>
</defs>
</svg>
